<svg width="2024" height="808" viewBox="0 0 2024 808" fill="none" xmlns="http://www.w3.org/2000/svg">
<g clip-path="url(#clip0_7965_2671)">
<path d="M866.388 468.532H767.104L749.365 517.678H701.001L789.324 286.448H844.428L934.047 517.678H884.09L866.351 468.532H866.388ZM852.205 428.721L816.765 330.134L781.325 428.721H852.242H852.205Z" fill="#FF5500"/>
<path d="M972.931 510.153C960.377 502.552 950.748 492.185 944.083 479.013C937.417 465.841 934.084 450.898 934.084 434.22C934.084 417.543 937.417 402.6 944.083 389.428C950.748 376.256 960.377 365.888 972.931 358.288C985.485 350.687 1000.37 346.887 1017.59 346.887C1040.37 346.887 1058.59 352.679 1072.22 364.228C1085.84 375.777 1093.95 391.421 1096.55 411.123H1052.7C1051 402.342 1047 395.442 1040.77 390.424C1034.55 385.407 1026.81 382.861 1017.56 382.861C1004.67 382.861 994.928 387.473 988.373 396.66C981.819 405.884 978.56 418.392 978.56 434.22C978.56 450.049 981.819 462.594 988.373 471.781C994.928 481.005 1004.67 485.58 1017.56 485.58C1027.22 485.58 1035.07 482.887 1041.07 477.537C1047.07 472.187 1050.96 464.586 1052.66 454.735H1096.51C1093.92 474.88 1085.77 491.041 1072.03 503.217C1058.29 515.429 1040.11 521.517 1017.56 521.517C1000.37 521.517 985.485 517.717 972.894 510.116L972.931 510.153Z" fill="#FF5500"/>
<path d="M1114.51 286.448H1158.35V372.195C1171.68 355.297 1188.98 346.811 1210.24 346.811C1229.16 346.811 1243.82 352.714 1254.23 364.484C1264.64 376.254 1269.86 392.636 1269.86 413.63V517.678H1226.01V418.759C1226.01 408.28 1223.6 399.978 1218.75 393.854C1213.9 387.766 1206.13 384.703 1195.39 384.703C1185.94 384.703 1177.42 388.024 1169.91 394.665C1162.39 401.307 1158.61 411.785 1158.61 426.138H1158.28V517.678H1114.43V286.448H1114.51Z" fill="#FF5500"/>
<path d="M1294 286.448H1337.85V325.3H1294V286.448ZM1294 350.685H1337.85V517.678H1294V350.685Z" fill="#FF5500"/>
<path d="M1361.96 350.685H1404.51V381.199C1414.62 359.577 1431.25 348.767 1454.47 348.767H1468.02V388.91H1452.54C1437.28 388.91 1425.69 392.71 1417.73 400.311C1409.77 407.911 1405.81 420.825 1405.81 439.015V517.715H1361.96V350.722V350.685Z" fill="#FF5500"/>
<path d="M1582.45 499.047C1575.38 507.201 1567.52 512.957 1558.93 516.389C1550.34 519.82 1540.45 521.517 1529.27 521.517C1510.79 521.517 1495.94 517.09 1484.79 508.198C1473.61 499.306 1468.02 486.835 1468.02 470.785C1468.02 456.211 1473.24 444.92 1483.65 436.914C1494.05 428.87 1510.68 422.93 1533.45 419.093L1581.15 410.754V402.084C1581.15 394.815 1578.89 389.281 1574.38 385.554C1569.86 381.828 1562.45 379.946 1552.12 379.946C1542.68 379.946 1534.94 382.049 1528.9 386.218C1522.86 390.388 1519.75 396.439 1519.57 404.371H1476.05C1476.28 385.517 1483.42 371.238 1497.5 361.498C1511.57 351.757 1529.68 346.887 1551.82 346.887C1575.67 346.887 1593.67 351.277 1605.82 360.059C1617.96 368.84 1624.04 381.163 1624.04 396.992V517.754H1582.45V499.121V499.047ZM1519.75 484.436C1524.38 488.2 1531.2 490.045 1540.23 490.045C1551.6 490.045 1561.3 486.945 1569.23 480.747C1577.19 474.548 1581.15 465.324 1581.15 453.111V438.98L1541.82 447.023C1531.71 448.942 1524.34 451.488 1519.75 454.587C1515.12 457.687 1512.83 462.557 1512.83 469.198C1512.83 475.84 1515.12 480.71 1519.75 484.436Z" fill="#FF5500"/>
<path d="M539.39 394.55H460.289V413.441H539.39V394.55Z" fill="#FF5500"/>
<path d="M582.606 355.963H417.071C421.959 363.121 427.773 369.578 434.328 375.223H565.349C571.904 369.578 577.718 363.121 582.606 355.963Z" fill="#FF5500"/>
<path d="M599.68 292.388C595.902 240.734 552.648 200 499.84 200C447.031 200 403.814 240.734 400 292.388H599.68Z" fill="#FF5500"/>
<path d="M592.826 336.629C595.974 328.771 598.196 320.432 599.233 311.688H400.442C401.479 320.395 403.701 328.734 406.849 336.629H592.826Z" fill="#FF5500"/>
<path d="M417.071 452.034H582.606C577.718 444.876 571.904 438.42 565.349 432.774H434.328C427.773 438.42 421.959 444.876 417.071 452.034Z" fill="#FF5500"/>
<path d="M400 515.612C403.814 567.267 447.031 608.001 499.84 608.001C552.648 608.001 595.902 567.267 599.68 515.612H400Z" fill="#FF5500"/>
<path d="M406.849 471.336C403.701 479.195 401.479 487.533 400.442 496.278H599.27C598.233 487.57 596.011 479.232 592.863 471.336H406.849Z" fill="#FF5500"/>
</g>
<defs>
<clipPath id="clip0_7965_2671">
<rect width="1224" height="408" fill="#FF5500" transform="translate(400 200)"/>
</clipPath>
</defs>
</svg>
